<?xml version="1.0" standalone="no"?>
<!DOCTYPE svg PUBLIC "-//W3C//DTD SVG 20010904//EN"
 "http://www.w3.org/TR/2001/REC-SVG-20010904/DTD/svg10.dtd">
<svg version="1.0" xmlns="http://www.w3.org/2000/svg"
 width="32.000000pt" height="32.000000pt" viewBox="0 0 32.000000 32.000000"
 preserveAspectRatio="xMidYMid meet">

<g transform="translate(0.000000,32.000000) scale(0.100000,-0.100000)"
fill="#000000" stroke="none">
<path d="M109 281 c-16 -16 -29 -37 -29 -46 0 -9 -7 -23 -15 -31 -15 -16 -22
-125 -9 -158 9 -24 199 -24 208 0 13 33 6 142 -9 158 -8 8 -15 22 -15 31 0 24
-55 75 -80 75 -12 0 -35 -13 -51 -29z m82 -11 c11 -6 19 -21 19 -35 0 -23 -4
-25 -50 -25 -46 0 -50 2 -50 25 0 37 42 56 81 35z m49 -150 l0 -70 -80 0 -80
0 0 70 0 70 80 0 80 0 0 -70z"/>
<path d="M140 134 c-11 -12 -10 -18 3 -32 16 -15 18 -15 34 0 13 14 14 20 3
32 -16 20 -24 20 -40 0z"/>
</g>
</svg>
