<?xml version="1.0" encoding="UTF-8"?>
<svg version="1.1" xmlns="http://www.w3.org/2000/svg" width="32" height="32">
<path d="M0 0 C1.90625 0.38671875 1.90625 0.38671875 4.40625 2.07421875 C6.15258224 4.76648096 6.25607212 6.23831969 5.90625 9.38671875 C6.89625 9.71671875 7.88625 10.04671875 8.90625 10.38671875 C8.93308987 13.36594468 8.95301037 16.3449317 8.96875 19.32421875 C8.97712891 20.17435547 8.98550781 21.02449219 8.99414062 21.90039062 C8.99897461 23.1137207 8.99897461 23.1137207 9.00390625 24.3515625 C9.01176147 25.47485962 9.01176147 25.47485962 9.01977539 26.62084961 C8.90625 28.38671875 8.90625 28.38671875 7.90625 29.38671875 C6.42972336 29.48552672 4.94857764 29.5175112 3.46875 29.51953125 C2.12683594 29.52146484 2.12683594 29.52146484 0.7578125 29.5234375 C-0.18320312 29.51957031 -1.12421875 29.51570313 -2.09375 29.51171875 C-3.50527344 29.51751953 -3.50527344 29.51751953 -4.9453125 29.5234375 C-5.83992187 29.52214844 -6.73453125 29.52085938 -7.65625 29.51953125 C-8.48253906 29.51840332 -9.30882812 29.51727539 -10.16015625 29.51611328 C-12.09375 29.38671875 -12.09375 29.38671875 -13.09375 28.38671875 C-13.18006874 27.04404462 -13.20081473 25.69697553 -13.19140625 24.3515625 C-13.18818359 23.54267578 -13.18496094 22.73378906 -13.18164062 21.90039062 C-13.17326172 21.05025391 -13.16488281 20.20011719 -13.15625 19.32421875 C-13.15173828 18.47021484 -13.14722656 17.61621094 -13.14257812 16.73632812 C-13.13075373 14.61976212 -13.11281769 12.5032319 -13.09375 10.38671875 C-12.10375 10.05671875 -11.11375 9.72671875 -10.09375 9.38671875 C-10.17625 8.64421875 -10.25875 7.90171875 -10.34375 7.13671875 C-10.09375 4.38671875 -10.09375 4.38671875 -8.59375 2.07421875 C-5.54497526 0.0162958 -3.61641701 -0.19566435 0 0 Z M-5.09375 4.38671875 C-5.75375 6.03671875 -6.41375 7.68671875 -7.09375 9.38671875 C-3.79375 9.38671875 -0.49375 9.38671875 2.90625 9.38671875 C2.24625 7.73671875 1.58625 6.08671875 0.90625 4.38671875 C-1.07375 4.38671875 -3.05375 4.38671875 -5.09375 4.38671875 Z M-3.09375 17.38671875 C-3.09375 18.70671875 -3.09375 20.02671875 -3.09375 21.38671875 C-2.10375 21.05671875 -1.11375 20.72671875 -0.09375 20.38671875 C-0.42375 19.39671875 -0.75375 18.40671875 -1.09375 17.38671875 C-1.75375 17.38671875 -2.41375 17.38671875 -3.09375 17.38671875 Z " fill="#000000" transform="translate(18.09375,0.61328125)"/>
</svg>
