<svg version="1.2" xmlns="http://www.w3.org/2000/svg" viewBox="0 0 801 801" width="32" height="32" transform="scale(1.3,1.3)">
	<style>
		.s1 { fill: #ffffff } 
	</style>
	<g>
		<path fill-rule="evenodd" class="s1" d="m293.93 166.02l50.43 44.45c27.96 24.38 52.1 44.93 53.53 45.41 1.68 0.72 24.86-17.92 51.39-41.34 26.77-23.43 50.19-43.74 52.1-45.41 3.11-2.63 11.95 4.3 57.36 44.21l53.77 47.32 0.72-31.78 0.72-32.03h42.78v102.53l20.31 17.45 20.08 17.44 0.24 149.62v149.61l-149.61 1.44c-82.46 0.71-216.3 0.71-297.56 0l-147.94-1.44v-299.7zm7.65 54.25l-7.41-6.93-79.35 69.55-79.11 69.79 0.48 123.32 0.72 123.56h174.47l0.71-132.88 0.48-132.65 29.88-26.05c16.49-14.1 29.15-26.53 28.2-27.48-0.96-0.72-15.3-13.15-31.79-27.49-16.49-14.34-33.22-28.92-37.28-32.74zm211.75 1.19l-8.84-7.64-34.42 30.11c-18.88 16.49-36.33 31.79-38.72 34.18-4.3 4.06-3.34 5.02 25.58 31.07l30.11 26.77v264.81h174.47v-249.76l-69.55-60.94c-38.48-33.46-73.61-64.29-78.63-68.6zm-114.48 85.57c-0.72 0-12.43 9.8-25.81 21.75l-24.62 21.98v247.61h102.77v-247.37l-25.57-22.22c-13.86-11.95-26.05-21.99-26.77-21.75zm-227.29 42.78h102.77v138.62h-102.77zm67.16 35.85h-33.94l0.72 33.94 0.72 34.17h31.07l0.71-34.17zm284.17-35.85h102.77v138.62h-102.77zm66.92 35.85h-31.07v69.31h31.07z" transform="scale(1,1)"/>
	</g>
</svg>