<?xml version="1.0" standalone="no"?>
<!DOCTYPE svg PUBLIC "-//W3C//DTD SVG 20010904//EN"
 "http://www.w3.org/TR/2001/REC-SVG-20010904/DTD/svg10.dtd">
<svg version="1.0" xmlns="http://www.w3.org/2000/svg"
 width="252.000000pt" height="200.000000pt" viewBox="0 0 252.000000 200.000000"
 preserveAspectRatio="xMidYMid meet">

<g transform="translate(0.000000,200.000000) scale(0.100000,-0.100000)"
fill="#000000" stroke="none">
<path d="M421 1628 l-401 -351 0 -627 0 -627 619 -6 c340 -3 900 -3 1245 0
l626 6 0 626 -1 626 -84 73 -85 73 0 215 0 214 -90 0 -89 0 -3 -134 -3 -133
-225 198 c-190 167 -227 196 -240 185 -8 -7 -106 -92 -218 -190 -111 -98 -208
-176 -215 -173 -6 2 -107 88 -224 190 l-211 186 -401 -351z m589 -13 c69 -60
129 -112 133 -115 4 -4 -49 -56 -118 -115 l-125 -109 -2 -555 -3 -556 -365 0
-365 0 -3 517 -2 516 331 292 332 291 31 -29 c17 -16 87 -77 156 -137z m1059
-155 l291 -255 0 -522 0 -523 -365 0 -365 0 0 554 0 554 -126 112 c-121 109
-125 113 -107 130 10 10 83 74 162 143 l144 126 37 -32 c21 -18 168 -147 329
-287z m-696 -162 l107 -93 0 -517 0 -518 -215 0 -215 0 0 518 0 518 103 92
c56 50 105 91 108 91 3 1 54 -41 112 -91z"/>
<path d="M310 920 l0 -290 215 0 215 0 0 290 0 290 -215 0 -215 0 0 -290z
m278 -2 l-3 -143 -65 0 -65 0 -3 143 -3 142 71 0 71 0 -3 -142z"/>
<path d="M1780 920 l0 -290 215 0 215 0 0 290 0 290 -215 0 -215 0 0 -290z
m280 -5 l0 -145 -65 0 -65 0 0 145 0 145 65 0 65 0 0 -145z"/>
</g>
</svg>
