<?xml version="1.0" standalone="no"?>
<!DOCTYPE svg PUBLIC "-//W3C//DTD SVG 20010904//EN"
 "http://www.w3.org/TR/2001/REC-SVG-20010904/DTD/svg10.dtd">
<svg version="1.0" xmlns="http://www.w3.org/2000/svg"
 width="816.000000pt" height="200.000000pt" viewBox="0 0 816.000000 200.000000"
 preserveAspectRatio="xMidYMid meet">

<g transform="translate(0.000000,200.000000) scale(0.100000,-0.100000)"
fill="#000000" stroke="none">
<path d="M421 1628 l-401 -351 0 -627 0 -627 619 -6 c340 -3 900 -3 1245 0
l626 6 0 626 -1 626 -84 73 -85 73 0 215 0 214 -90 0 -89 0 -3 -134 -3 -133
-225 198 c-190 167 -227 196 -240 185 -8 -7 -106 -92 -218 -190 -111 -98 -208
-176 -215 -173 -6 2 -107 88 -224 190 l-211 186 -401 -351z m589 -13 c69 -60
129 -112 133 -115 4 -4 -49 -56 -118 -115 l-125 -109 -2 -555 -3 -556 -365 0
-365 0 -3 517 -2 516 331 292 332 291 31 -29 c17 -16 87 -77 156 -137z m1059
-155 l291 -255 0 -522 0 -523 -365 0 -365 0 0 554 0 554 -126 112 c-121 109
-125 113 -107 130 10 10 83 74 162 143 l144 126 37 -32 c21 -18 168 -147 329
-287z m-696 -162 l107 -93 0 -517 0 -518 -215 0 -215 0 0 518 0 518 103 92
c56 50 105 91 108 91 3 1 54 -41 112 -91z"/>
<path d="M310 920 l0 -290 215 0 215 0 0 290 0 290 -215 0 -215 0 0 -290z
m278 -2 l-3 -143 -65 0 -65 0 -3 143 -3 142 71 0 71 0 -3 -142z"/>
<path d="M1780 920 l0 -290 215 0 215 0 0 290 0 290 -215 0 -215 0 0 -290z
m280 -5 l0 -145 -65 0 -65 0 0 145 0 145 65 0 65 0 0 -145z"/>
<path d="M6835 1357 c-44 -4 -86 -9 -92 -12 -10 -3 -13 -123 -13 -550 l0 -545
79 0 79 0 7 43 c4 23 10 46 12 50 3 5 24 -9 47 -32 50 -49 99 -70 179 -77 206
-19 346 185 316 461 -15 141 -75 242 -173 292 -97 49 -239 30 -306 -40 -48
-51 -49 -44 -52 196 l-3 222 -80 -8z m344 -536 c88 -63 108 -248 39 -351 -38
-55 -68 -71 -130 -71 -66 0 -107 18 -142 64 -25 33 -26 40 -26 170 l0 135 30
29 c16 15 45 33 62 40 49 19 129 11 167 -16z"/>
<path d="M2794 1349 c-50 -14 -69 -43 -69 -104 0 -42 5 -59 24 -79 45 -47 161
-43 196 7 8 12 15 42 15 68 0 57 -26 94 -78 109 -42 11 -46 11 -88 -1z"/>
<path d="M5398 773 c-3 -547 -3 -548 -26 -603 -13 -29 -36 -74 -53 -98 -16
-23 -29 -45 -29 -48 0 -2 45 -4 99 -4 99 0 99 0 126 31 14 18 35 50 47 73 46
90 48 111 48 669 l0 527 -105 0 -104 0 -3 -547z"/>
<path d="M4234 1011 c-52 -13 -101 -49 -134 -99 -17 -26 -34 -46 -38 -45 -4 2
-9 33 -12 70 l-5 68 -75 -3 c-41 -2 -78 -6 -82 -9 -5 -2 -8 -170 -8 -374 l0
-369 95 0 95 0 0 213 c0 212 0 212 28 262 41 74 78 95 172 95 l78 0 7 86 c4
47 3 90 -2 94 -13 13 -85 19 -119 11z"/>
<path d="M4713 1005 c-193 -42 -311 -233 -275 -447 24 -143 91 -235 210 -291
62 -30 75 -32 172 -31 93 0 112 3 166 28 154 69 234 232 212 425 -21 175 -134
292 -308 320 -80 13 -99 13 -177 -4z m183 -164 c80 -36 119 -119 112 -235 -9
-137 -78 -216 -189 -216 -82 0 -157 59 -180 142 -58 211 87 386 257 309z"/>
<path d="M6073 1005 c-193 -42 -311 -233 -275 -447 24 -143 91 -235 210 -291
62 -30 75 -32 172 -31 93 0 112 3 166 28 154 69 234 232 212 425 -21 175 -134
292 -308 320 -80 13 -99 13 -177 -4z m183 -164 c80 -36 119 -119 112 -235 -9
-137 -78 -216 -189 -216 -82 0 -157 59 -180 142 -58 211 87 386 257 309z"/>
<path d="M3343 990 c-122 -43 -196 -136 -224 -278 -41 -213 63 -404 250 -459
61 -17 247 -14 314 7 l37 11 0 62 c0 34 -3 72 -6 84 l-6 21 -46 -21 c-66 -30
-180 -30 -239 1 -77 40 -115 110 -116 213 0 85 28 146 85 185 38 26 49 29 127
29 68 0 97 -5 135 -23 27 -12 51 -21 53 -19 1 2 6 37 9 78 5 57 3 77 -7 86
-54 44 -271 58 -366 23z"/>
<path d="M7728 996 c-113 -41 -170 -140 -147 -259 4 -23 8 -45 9 -49 0 -4 13
-22 29 -41 34 -38 92 -66 213 -102 117 -34 147 -77 93 -130 -21 -22 -33 -25
-97 -25 -76 0 -154 17 -209 44 -18 9 -33 15 -34 14 -2 -2 -5 -40 -7 -86 l-5
-82 51 -16 c96 -29 211 -39 288 -26 143 25 214 91 225 211 11 123 -31 171
-202 227 -137 46 -165 64 -165 108 0 71 80 93 202 56 40 -12 79 -27 86 -32 20
-17 27 -1 30 81 l4 78 -79 22 c-92 24 -227 28 -285 7z"/>
<path d="M2750 625 l0 -375 95 0 95 0 0 375 0 375 -95 0 -95 0 0 -375z"/>
</g>
</svg>
