<?xml version="1.0" standalone="no"?>
<!DOCTYPE svg PUBLIC "-//W3C//DTD SVG 20010904//EN"
 "http://www.w3.org/TR/2001/REC-SVG-20010904/DTD/svg10.dtd">
<svg version="1.0" xmlns="http://www.w3.org/2000/svg"
 width="32.000000pt" height="32.000000pt" viewBox="0 0 32.000000 32.000000"
 preserveAspectRatio="xMidYMid meet">

<g transform="translate(0.000000,32.000000) scale(0.100000,-0.100000)"
fill="#000000" stroke="none">
<path d="M122 278 c-22 -22 -15 -76 13 -94 23 -15 27 -15 50 0 18 12 25 25 25
49 0 40 -15 57 -50 57 -14 0 -31 -5 -38 -12z"/>
<path d="M90 113 c-30 -21 -49 -44 -50 -60 0 -10 30 -13 120 -13 124 0 136 4
107 40 -39 51 -128 67 -177 33z"/>
</g>
</svg>
