<?xml version="1.0" encoding="UTF-8"?>
<svg version="1.1" xmlns="http://www.w3.org/2000/svg" width="32" height="32">
<path d="M0 0 C2.85456158 1.19871269 5.20388115 2.44261223 7 5 C7 6.98 7 8.96 7 11 C-0.92 11 -8.84 11 -17 11 C-17 5 -17 5 -15.8203125 3.3203125 C-10.72436341 -0.27268386 -6.15875263 -1.21994461 0 0 Z M-15 8 C-15 8.33 -15 8.66 -15 9 C-8.4 9 -1.8 9 5 9 C1.72171131 4.18624808 1.72171131 4.18624808 -1 3 C-7.72015208 2.32798479 -10.27918179 3.16116134 -15 8 Z " fill="#000000" transform="translate(21,17)"/>
<path d="M0 0 C2.875 0.9375 2.875 0.9375 4.875 3.9375 C4.42216981 10.39033019 4.42216981 10.39033019 1.875 12.9375 C-1.22847254 13.26765665 -3.28281176 13.44281294 -6 11.8125 C-7.67968045 9.01303259 -7.58242277 7.13945936 -7.125 3.9375 C-4.91876051 0.62814076 -4.01949747 -0.08038995 0 0 Z M-2.125 2.9375 C-2.785 3.5975 -3.445 4.2575 -4.125 4.9375 C-3.8064823 7.04570797 -3.8064823 7.04570797 -3.125 8.9375 C-1.805 8.9375 -0.485 8.9375 0.875 8.9375 C1.205 7.6175 1.535 6.2975 1.875 4.9375 C0.555 4.2775 -0.765 3.6175 -2.125 2.9375 Z " fill="#000000" transform="translate(17.125,2.0625)"/>
</svg>
